<?xml version="1.0" encoding="UTF-8" standalone="no" ?>
<!DOCTYPE svg PUBLIC "-//W3C//DTD SVG 1.1//EN" "http://www.w3.org/Graphics/SVG/1.1/DTD/svg11.dtd">
<svg xmlns="http://www.w3.org/2000/svg" xmlns:xlink="http://www.w3.org/1999/xlink" version="1.1" width="400" height="400" viewBox="0 0 400 400" xml:space="preserve">
<desc>Created with Fabric.js 3.6.2</desc>
<defs>
</defs>
<g transform="matrix(3.33 0 0 3.33 200 200)" id="Layer_1"  >
<path style="stroke: none; stroke-width: 1; stroke-dasharray: none; stroke-linecap: butt; stroke-dashoffset: 0; stroke-linejoin: miter; stroke-miterlimit: 4; fill: rgb(89,141,202); fill-rule: evenodd; opacity: 1;"  transform=" translate(-33, -34)" d="M 37.167 22.283 c -2.619 0.953 -4.274 3.411 -4.086 6.101 l 0.063 1.038 l -1.048 -0.127 c -3.813 -0.487 -7.145 -2.139 -9.974 -4.915 l -1.383 -1.377 l -0.356 1.017 c -0.754 2.268 -0.272 4.661 1.299 6.271 c 0.838 0.89 0.649 1.017 -0.796 0.487 c -0.503 -0.169 -0.943 -0.296 -0.985 -0.233 c -0.146 0.149 0.356 2.076 0.754 2.839 c 0.545 1.06 1.655 2.098 2.871 2.712 l 1.027 0.487 l -1.215 0.021 c -1.173 0 -1.215 0.021 -1.089 0.466 c 0.419 1.377 2.074 2.839 3.918 3.475 l 1.299 0.444 l -1.131 0.678 c -1.676 0.975 -3.646 1.525 -5.616 1.568 C 19.775 43.256 19 43.341 19 43.404 c 0 0.212 2.557 1.398 4.044 1.864 c 4.463 1.377 9.765 0.784 13.746 -1.567 c 2.829 -1.674 5.657 -5 6.978 -8.22 c 0.713 -1.716 1.425 -4.852 1.425 -6.355 c 0 -0.975 0.063 -1.102 1.236 -2.267 c 0.692 -0.679 1.341 -1.419 1.467 -1.631 c 0.21 -0.403 0.188 -0.403 -0.88 -0.044 c -1.781 0.637 -2.033 0.552 -1.152 -0.401 c 0.649 -0.678 1.425 -1.907 1.425 -2.268 c 0 -0.062 -0.314 0.042 -0.671 0.233 c -0.377 0.212 -1.215 0.53 -1.844 0.72 l -1.131 0.361 l -1.027 -0.7 c -0.566 -0.381 -1.361 -0.805 -1.781 -0.932 C 39.766 21.902 38.131 21.944 37.167 22.283 z M 3 4 h 60 v 60 H 3 V 4 z" stroke-linecap="round" />
</g>
</svg>
